<svg width="548" height="403" viewBox="0 0 548 403" fill="none" xmlns="http://www.w3.org/2000/svg">
<path opacity="0.6" d="M318.251 71.0006C283.183 69.7567 249.758 58.2018 217.888 45.5624C186.019 32.923 154.431 18.9164 120.185 12.2189C98.1664 7.90635 72.9851 7.29982 55.2475 19.3481C38.1746 30.939 32.6599 50.9492 29.6935 69.5151C27.4624 83.4858 26.1681 98.1864 32.267 111.268C36.5126 120.345 44.0468 127.978 49.2593 136.675C67.3899 166.935 54.5726 204.251 34.9211 233.822C25.7048 247.7 15.0128 260.905 7.90164 275.662C0.790452 290.419 -2.50326 307.325 3.72155 322.375C9.89096 337.281 24.5867 348.497 40.5114 356.377C72.8542 372.367 110.964 376.942 148.126 379.563C230.388 385.305 313.094 382.817 395.572 380.329C426.097 379.404 456.758 378.474 486.784 373.647C503.459 370.969 520.678 366.724 532.785 356.474C548.151 343.46 551.963 321.429 541.664 305.11C524.389 277.744 476.631 270.944 464.554 241.573C457.911 225.408 464.735 207.397 474.395 192.404C495.109 160.242 529.839 132.023 531.667 95.2565C532.926 70.0034 516.231 44.7195 490.415 32.7688C463.36 20.2322 425.84 21.8153 405.881 42.5349C385.328 63.8816 349.208 72.0954 318.251 71.0006Z" fill="#587EEC"/>
<path d="M122.436 372.727C122.436 372.727 94.7368 351.355 89.5041 324.169C87.3821 312.751 81.6903 302.343 73.2824 294.506C69.2602 290.819 64.9159 287.516 60.3039 284.637" stroke="#9AB1F3" stroke-width="2" stroke-miterlimit="10"/>
<path d="M56.9146 267.51C59.342 270.862 60.4399 285.064 60.4399 285.064C60.4399 285.064 47.4615 279.847 45.029 276.5C43.8609 274.892 43.3668 272.875 43.6554 270.895C43.9439 268.915 44.9915 267.132 46.5676 265.94C48.1437 264.748 50.1193 264.244 52.0597 264.538C54.0002 264.833 55.7465 265.902 56.9146 267.51Z" fill="#587EEC"/>
<path d="M80.1922 278.654C80.444 282.812 73.8113 295.344 73.8113 295.344C73.8113 295.344 65.6878 283.758 65.4309 279.6C65.3333 277.617 66.0049 275.675 67.3003 274.195C68.5956 272.714 70.4105 271.814 72.3515 271.69C74.2925 271.566 76.2034 272.227 77.67 273.53C79.1367 274.834 80.0411 276.675 80.1872 278.654H80.1922Z" fill="#587EEC"/>
<path d="M102.755 310.687C100.921 314.408 88.9904 321.81 88.9904 321.81C88.9904 321.81 87.7163 307.623 89.5495 303.902C90.4519 302.152 91.9914 300.833 93.8367 300.23C95.6821 299.627 97.6857 299.787 99.4164 300.676C101.147 301.566 102.467 303.113 103.091 304.985C103.715 306.857 103.594 308.905 102.755 310.687Z" fill="#587EEC"/>
<path d="M114.484 338.834C113.29 342.817 102.759 352.167 102.759 352.167C102.759 352.167 99.1485 338.407 100.342 334.419C100.916 332.505 102.211 330.902 103.943 329.962C105.674 329.023 107.701 328.824 109.576 329.41C111.451 329.995 113.022 331.317 113.942 333.084C114.863 334.852 115.058 336.92 114.484 338.834Z" fill="#587EEC"/>
<path d="M61.8047 305.418C65.8338 305.973 78.5704 300.104 78.5704 300.104C78.5704 300.104 67.8231 291.016 63.7739 290.461C61.8305 290.194 59.8629 290.727 58.304 291.941C56.7452 293.155 55.7227 294.951 55.4616 296.935C55.2005 298.918 55.722 300.926 56.9116 302.517C58.1012 304.108 59.8613 305.152 61.8047 305.418Z" fill="#587EEC"/>
<path d="M75.9314 338.166C79.9604 337.461 90.3703 327.978 90.3703 327.978C90.3703 327.978 77.4473 322.591 73.4233 323.295C72.4599 323.457 71.5373 323.811 70.7088 324.338C69.8802 324.865 69.1622 325.554 68.596 326.366C68.0299 327.178 67.6269 328.096 67.4103 329.068C67.1937 330.039 67.1678 331.045 67.3341 332.027C67.5003 333.009 67.8555 333.947 68.379 334.788C68.9026 335.629 69.5841 336.356 70.3844 336.927C71.1846 337.497 72.0877 337.901 73.0415 338.113C73.9953 338.326 74.9809 338.344 75.9415 338.166H75.9314Z" fill="#587EEC"/>
<path d="M93.9359 368.076C98.0203 368.076 109.856 360.525 109.856 360.525C109.856 360.525 98.0153 352.984 93.9309 352.984C91.9701 352.984 90.0896 353.779 88.7031 355.194C87.3166 356.609 86.5377 358.529 86.5377 360.53C86.5377 362.531 87.3166 364.45 88.7031 365.865C90.0896 367.281 91.9701 368.076 93.9309 368.076H93.9359Z" fill="#587EEC"/>
<path d="M391.523 187.875C391.523 187.875 408.596 157.009 434.331 148.117C445.138 144.454 454.489 137.314 460.983 127.768C464.029 123.204 466.657 118.364 468.835 113.309" stroke="#9AB1F3" stroke-width="2" stroke-miterlimit="10"/>
<path d="M484.991 107.654C482.06 110.553 468.417 113.555 468.417 113.555C468.417 113.555 471.766 99.7284 474.697 96.8243C476.112 95.4724 477.99 94.7416 479.928 94.7891C481.865 94.8367 483.707 95.6588 485.056 97.0786C486.406 98.4983 487.155 100.402 487.143 102.38C487.131 104.358 486.358 106.252 484.991 107.654Z" fill="#587EEC"/>
<path d="M477.275 132.651C473.246 133.463 460.218 128.415 460.218 128.415C460.218 128.415 470.391 118.649 474.395 117.852C475.356 117.635 476.35 117.615 477.319 117.795C478.288 117.975 479.212 118.35 480.037 118.899C480.861 119.449 481.57 120.16 482.122 120.993C482.673 121.826 483.056 122.763 483.248 123.748C483.44 124.734 483.437 125.749 483.239 126.734C483.041 127.718 482.653 128.653 482.097 129.482C481.54 130.311 480.827 131.019 479.999 131.563C479.171 132.107 478.245 132.477 477.275 132.651Z" fill="#587EEC"/>
<path d="M449.193 159.728C445.336 158.366 436.567 147.284 436.567 147.284C436.567 147.284 450.165 144.108 454.033 145.47C454.962 145.785 455.821 146.284 456.56 146.941C457.298 147.597 457.902 148.396 458.335 149.292C458.768 150.188 459.023 151.163 459.084 152.16C459.145 153.158 459.012 154.158 458.691 155.102C458.371 156.046 457.87 156.916 457.217 157.661C456.565 158.406 455.773 159.011 454.89 159.441C454.006 159.872 453.048 160.119 452.07 160.168C451.092 160.217 450.114 160.068 449.193 159.728Z" fill="#587EEC"/>
<path d="M423.388 175.334C419.359 174.655 408.903 165.223 408.903 165.223C408.903 165.223 421.791 159.744 425.815 160.422C427.752 160.747 429.483 161.844 430.627 163.472C431.771 165.1 432.235 167.125 431.916 169.101C431.598 171.078 430.523 172.845 428.928 174.012C427.333 175.18 425.349 175.654 423.413 175.328L423.388 175.334Z" fill="#587EEC"/>
<path d="M448.841 117.606C448.836 121.774 456.244 133.869 456.244 133.869C456.244 133.869 463.642 121.79 463.642 117.626C463.668 116.619 463.496 115.617 463.136 114.679C462.776 113.74 462.236 112.885 461.547 112.164C460.858 111.442 460.035 110.869 459.126 110.477C458.216 110.085 457.239 109.884 456.252 109.884C455.265 109.884 454.287 110.085 453.378 110.477C452.468 110.869 451.645 111.442 450.956 112.164C450.267 112.885 449.727 113.74 449.367 114.679C449.007 115.617 448.835 116.619 448.861 117.626L448.841 117.606Z" fill="#587EEC"/>
<path d="M418.91 136.243C420.129 140.222 430.725 149.5 430.725 149.5C430.725 149.5 434.251 135.714 433.022 131.736C432.385 129.892 431.071 128.373 429.359 127.499C427.646 126.624 425.668 126.462 423.84 127.046C422.013 127.63 420.478 128.915 419.561 130.631C418.643 132.346 418.413 134.359 418.92 136.243H418.91Z" fill="#587EEC"/>
<path d="M392.284 158.433C392.828 162.545 401.732 173.529 401.732 173.529C401.732 173.529 407.478 160.551 406.934 156.423C406.826 155.423 406.523 154.455 406.044 153.576C405.564 152.698 404.917 151.926 404.14 151.306C403.364 150.686 402.474 150.231 401.522 149.967C400.571 149.704 399.577 149.637 398.6 149.771C397.623 149.905 396.683 150.237 395.833 150.748C394.984 151.258 394.243 151.937 393.654 152.744C393.066 153.551 392.641 154.47 392.406 155.447C392.171 156.424 392.129 157.439 392.284 158.433Z" fill="#587EEC"/>
<path opacity="0.25" d="M484.991 107.654C482.06 110.553 468.417 113.555 468.417 113.555C468.417 113.555 471.766 99.7284 474.697 96.8243C476.112 95.4724 477.99 94.7416 479.928 94.7891C481.865 94.8367 483.707 95.6588 485.056 97.0786C486.406 98.4983 487.155 100.402 487.143 102.38C487.131 104.358 486.358 106.252 484.991 107.654Z" fill="black"/>
<path opacity="0.25" d="M477.275 132.651C473.246 133.463 460.218 128.415 460.218 128.415C460.218 128.415 470.391 118.649 474.395 117.852C475.356 117.635 476.35 117.615 477.319 117.795C478.288 117.975 479.212 118.35 480.037 118.899C480.861 119.449 481.57 120.16 482.122 120.993C482.673 121.826 483.056 122.763 483.248 123.748C483.44 124.734 483.437 125.749 483.239 126.734C483.041 127.718 482.653 128.653 482.097 129.482C481.54 130.311 480.827 131.019 479.999 131.563C479.171 132.107 478.245 132.477 477.275 132.651Z" fill="black"/>
<path opacity="0.25" d="M449.193 159.728C445.336 158.366 436.567 147.284 436.567 147.284C436.567 147.284 450.165 144.108 454.033 145.47C454.962 145.785 455.821 146.284 456.56 146.941C457.298 147.597 457.902 148.396 458.335 149.292C458.768 150.188 459.023 151.163 459.084 152.16C459.145 153.158 459.012 154.158 458.691 155.102C458.371 156.046 457.87 156.916 457.217 157.661C456.565 158.406 455.773 159.011 454.89 159.441C454.006 159.872 453.048 160.119 452.07 160.168C451.092 160.217 450.114 160.068 449.193 159.728Z" fill="black"/>
<path opacity="0.25" d="M423.388 175.334C419.359 174.655 408.903 165.223 408.903 165.223C408.903 165.223 421.791 159.744 425.815 160.422C427.752 160.747 429.483 161.844 430.627 163.472C431.771 165.1 432.235 167.125 431.916 169.101C431.598 171.078 430.523 172.845 428.928 174.012C427.333 175.18 425.349 175.654 423.413 175.328L423.388 175.334Z" fill="black"/>
<path opacity="0.25" d="M448.841 117.606C448.836 121.774 456.244 133.869 456.244 133.869C456.244 133.869 463.642 121.79 463.642 117.626C463.668 116.619 463.496 115.617 463.136 114.679C462.776 113.74 462.236 112.885 461.547 112.164C460.858 111.442 460.035 110.869 459.126 110.477C458.216 110.085 457.239 109.884 456.252 109.884C455.265 109.884 454.287 110.085 453.378 110.477C452.468 110.869 451.645 111.442 450.956 112.164C450.267 112.885 449.727 113.74 449.367 114.679C449.007 115.617 448.835 116.619 448.861 117.626L448.841 117.606Z" fill="black"/>
<path opacity="0.25" d="M418.91 136.243C420.129 140.222 430.725 149.5 430.725 149.5C430.725 149.5 434.251 135.714 433.022 131.736C432.385 129.892 431.071 128.373 429.359 127.499C427.646 126.624 425.668 126.462 423.84 127.046C422.013 127.63 420.478 128.915 419.561 130.631C418.643 132.346 418.413 134.359 418.92 136.243H418.91Z" fill="black"/>
<path opacity="0.25" d="M392.284 158.433C392.828 162.545 401.732 173.529 401.732 173.529C401.732 173.529 407.478 160.551 406.934 156.423C406.826 155.423 406.523 154.455 406.044 153.576C405.564 152.698 404.917 151.926 404.14 151.306C403.364 150.686 402.474 150.231 401.522 149.967C400.571 149.704 399.577 149.637 398.6 149.771C397.623 149.905 396.683 150.237 395.833 150.748C394.984 151.258 394.243 151.937 393.654 152.744C393.066 153.551 392.641 154.47 392.406 155.447C392.171 156.424 392.129 157.439 392.284 158.433Z" fill="black"/>
<path d="M392.505 187.264C392.505 187.264 395.859 151.982 415.833 133.221C424.258 125.402 429.972 115.007 432.12 103.594C433.098 98.1681 433.585 92.6623 433.576 87.1456" stroke="#9AB1F3" stroke-width="2" stroke-miterlimit="10"/>
<path d="M446.096 75.2412C444.585 79.1065 433.284 87.4951 433.284 87.4951C433.284 87.4951 430.856 73.4679 432.382 69.6026C433.117 67.7465 434.544 66.2644 436.349 65.4821C438.155 64.6999 440.191 64.6816 442.009 65.4314C443.828 66.1812 445.28 67.6376 446.046 69.4801C446.813 71.3227 446.831 73.4006 446.096 75.2566V75.2412Z" fill="#587EEC"/>
<path d="M448.972 101.312C445.633 103.707 431.697 104.493 431.697 104.493C431.697 104.493 437.126 91.3656 440.465 88.9703C441.257 88.3654 442.16 87.9289 443.12 87.6865C444.08 87.4441 445.078 87.4008 446.055 87.5592C447.032 87.7176 447.968 88.0744 448.807 88.6085C449.646 89.1426 450.372 89.8432 450.942 90.6687C451.511 91.4943 451.912 92.428 452.121 93.4146C452.331 94.4012 452.344 95.4207 452.16 96.4126C451.976 97.4045 451.6 98.3488 451.052 99.1894C450.504 100.03 449.797 100.75 448.972 101.306V101.312Z" fill="#587EEC"/>
<path d="M434.034 137.693C429.965 138.042 417.546 131.525 417.546 131.525C417.546 131.525 428.726 122.992 432.795 122.643C434.75 122.475 436.689 123.107 438.187 124.398C439.685 125.69 440.619 127.536 440.783 129.53C440.947 131.525 440.328 133.504 439.063 135.033C437.797 136.562 435.988 137.515 434.034 137.683V137.693Z" fill="#587EEC"/>
<path d="M416.654 162.617C412.701 163.645 399.385 159.394 399.385 159.394C399.385 159.394 408.989 149.058 412.942 148.009C414.84 147.507 416.856 147.794 418.546 148.809C420.237 149.824 421.463 151.482 421.955 153.419C422.447 155.356 422.165 157.413 421.171 159.138C420.177 160.863 418.552 162.115 416.654 162.617Z" fill="#587EEC"/>
<path d="M417.007 99.3172C418.659 103.126 430.212 111.139 430.212 111.139C430.212 111.139 432.176 97.035 430.524 93.2262C429.701 91.4442 428.228 90.0615 426.419 89.3734C424.61 88.6854 422.609 88.7466 420.844 89.5439C419.079 90.3413 417.69 91.8117 416.973 93.6407C416.256 95.4698 416.268 97.5126 417.007 99.3326V99.3172Z" fill="#587EEC"/>
<path d="M397.043 128.729C399.737 131.859 413.104 135.961 413.104 135.961C413.104 135.961 410.847 121.903 408.153 118.772C407.517 118.012 406.739 117.388 405.865 116.937C404.991 116.486 404.037 116.217 403.06 116.145C402.083 116.073 401.102 116.2 400.173 116.519C399.245 116.838 398.388 117.341 397.652 118.001C396.915 118.661 396.315 119.463 395.885 120.362C395.456 121.26 395.205 122.237 395.149 123.235C395.092 124.233 395.23 125.233 395.556 126.176C395.881 127.119 396.386 127.987 397.043 128.729Z" fill="#587EEC"/>
<path d="M381.486 160.042C383.621 163.589 396.116 169.937 396.116 169.937C396.116 169.937 396.222 155.693 394.102 152.142C393.046 150.502 391.407 149.346 389.53 148.919C387.654 148.493 385.688 148.829 384.05 149.856C382.413 150.884 381.232 152.522 380.758 154.424C380.284 156.325 380.554 158.34 381.511 160.042H381.486Z" fill="#587EEC"/>
<path d="M366.82 49.0937C367.656 45.9634 368.664 42.8177 369.369 39.6463C368.523 42.8177 367.51 45.9737 366.82 49.0937Z" fill="url(#paint0_linear_4_6)"/>
<path d="M363.073 79.2453C363.003 79.122 362.953 78.9986 362.897 78.8855C362.897 78.8341 362.847 78.793 362.827 78.7416C362.717 78.7944 362.604 78.8408 362.489 78.8804C362.268 78.9678 362.041 79.05 361.809 79.1168C361.578 79.1836 361.482 79.2196 361.306 79.2607C361.16 79.3121 361.01 79.3517 360.857 79.379L360.898 79.4715C361.084 79.4304 361.265 79.3944 361.452 79.343L361.502 79.9804C361.714 79.9804 361.91 79.9495 362.101 79.9495C362.192 79.9444 362.283 79.9444 362.373 79.9495C362.766 79.9495 363.109 79.9495 363.381 79.9495C363.275 79.7182 363.164 79.4766 363.073 79.2453ZM465.309 245.336C462.942 242.082 458.218 207.161 458.218 207.161C458.218 207.161 448.926 182.329 451.46 172.419C453.993 162.509 444.54 137.153 444.54 137.153C444.54 137.153 438.295 134.383 437.957 130.271C437.957 130.271 412.459 122.047 411.265 115.879C410.298 110.821 394.485 107.192 388.804 106.046C387.071 98.9112 385.329 92.2548 384.044 88.6208C383.697 87.49 383.37 86.5134 383.067 85.7424C380.897 80.0883 374.188 79.5743 369.323 80.0266C369.113 79.063 368.721 78.1501 368.17 77.3384C368.09 77.0593 367.93 76.8107 367.712 76.6239C367.607 76.5331 367.496 76.4506 367.379 76.3772C367.291 76.2106 367.175 76.061 367.037 75.9351C366.899 75.8081 366.747 75.6977 366.584 75.6062C366.467 75.5415 366.345 75.4849 366.221 75.4365C365.929 75.3231 365.627 75.2388 365.32 75.1847C364.961 75.1094 364.597 75.0613 364.232 75.0408C365.121 74.6439 365.913 74.0526 366.553 73.3086C366.989 72.7862 367.313 72.177 367.505 71.5198C367.665 70.9732 367.736 70.4038 367.717 69.8339C367.586 70.0688 367.434 70.2907 367.264 70.4969C367.475 68.2199 366.297 65.9069 365.622 63.6401C364.804 60.6891 364.653 57.5873 365.179 54.5679C365.853 50.0138 367.525 45.4083 368.659 40.772C368.661 40.7464 368.661 40.7205 368.659 40.6949C369.253 38.3924 369.621 36.0351 369.757 33.6581C369.953 28.8625 368.749 24.0771 366.815 19.708C365.098 15.8375 362.565 12.0288 358.687 10.4559C355.806 9.26854 352.578 9.45873 349.476 9.2634C342.515 8.82136 335.878 6.32329 329.26 4.05138C322.642 1.77948 315.833 -0.286828 308.868 0.108956C301.903 0.504741 294.736 3.93316 291.559 10.2246C290.551 12.1881 289.972 14.3726 288.769 16.2179C286.512 19.6977 282.473 21.4402 279.104 23.8406C275.735 26.241 272.768 29.6489 271.55 33.7147C270.884 35.9052 270.79 38.235 271.278 40.4739C271.387 40.9794 271.529 41.4773 271.701 41.9645C272.179 43.3226 272.924 44.5664 273.891 45.619C274.621 46.3971 275.459 47.0605 276.379 47.5877C277.535 48.2413 278.771 48.7324 280.056 49.0475C280.01 49.2017 279.965 49.3662 279.915 49.5255C279.834 49.7876 279.764 50.0395 279.688 50.3222C279.522 50.9544 279.366 51.5969 279.235 52.2446C279.23 52.2907 279.23 52.3373 279.235 52.3834C278.616 55.307 278.306 58.2898 278.308 61.2808C278.307 62.6954 278.378 64.1091 278.52 65.5162C280.534 86.3746 297.406 102.828 318.251 103.897C318.966 103.933 319.686 103.954 320.416 103.954C320.749 103.954 321.076 103.954 321.424 103.954C321.751 104.396 322.073 104.848 322.38 105.29C322.688 105.732 322.97 106.184 323.237 106.626L322.506 105.855L321.776 105.172C321.578 105.449 321.357 105.709 321.116 105.948C320.64 105.777 320.154 105.636 319.661 105.526C317.571 105.054 314.388 104.879 310.198 106.169C306.345 107.346 301.636 109.767 296.126 114.367L269.278 130.816L254.754 139.831L249.521 152.887C249.521 152.887 245.588 168.4 241.211 186.174C241.04 186.225 240.874 186.277 240.708 186.338C240.353 186.297 239.997 186.277 239.64 186.277C237.101 186.271 234.658 187.269 232.825 189.063C230.992 190.856 229.911 193.304 229.809 195.894C221.106 206.688 220.613 217.482 222.658 222.437C222.843 222.901 223.076 223.344 223.353 223.758C224.692 225.732 227.195 230.821 229.734 236.243C229.668 236.691 229.628 237.066 229.608 237.348C229.603 237.441 229.603 237.534 229.608 237.626C229.608 237.626 231.118 260.916 226.082 267.593C224.979 269.047 225.146 270.959 226.082 273.077C229.457 280.695 242.798 290.867 242.798 290.867C242.798 290.867 258.798 290.779 267.712 289.787C267.687 290.702 267.667 291.612 267.646 292.501C267.445 301.486 267.445 309.016 267.445 309.016L267.113 318.438C267.113 318.438 264.091 338.294 262.58 343.768C261.628 347.202 262.726 378.993 263.683 402.365H421.328C423.181 388.538 420.567 346.528 420.567 346.528C420.567 346.528 418.084 335.668 417.994 326.2C417.989 326.189 417.986 326.178 417.986 326.166C417.986 326.155 417.989 326.143 417.994 326.133C417.994 325.305 417.994 324.498 418.024 323.707L419.167 323.665L421.222 323.594H421.408C421.408 323.594 421.459 323.398 421.575 323.079C421.846 322.286 422.217 321.531 422.677 320.833C423.554 319.512 424.924 318.217 426.983 318.13C428.122 318.083 429.884 317.143 431.874 315.755C431.887 315.758 431.901 315.758 431.914 315.755C437.268 312.059 444.343 305.238 446.061 304.118C448.423 302.576 459.734 292.296 459.734 292.296C459.734 292.296 461.421 290.116 463.219 287.49L463.285 287.397C465.521 284.108 467.898 280.175 467.314 278.937C466.307 276.716 467.989 271.406 467.989 271.406C473.241 261.594 467.676 248.59 465.309 245.336ZM367.923 87.2381C367.972 87.3916 368.002 87.5503 368.014 87.711C367.888 87.5414 367.762 87.3615 367.636 87.197L367.515 87.0325L367.43 86.9092L367.621 86.6419C367.621 86.6419 367.621 86.6419 367.621 86.6779C367.754 86.8445 367.856 87.0343 367.923 87.2381ZM366.231 82.684C365.682 82.7971 365.249 82.8999 364.967 82.977C364.609 82.3294 364.267 81.6817 363.96 81.0238C364.767 81.5019 365.528 82.0578 366.231 82.684ZM365.284 83.4962C365.283 83.4859 365.283 83.4755 365.284 83.4653L365.325 83.4962C365.531 83.6349 365.733 83.7686 365.919 83.9074C366.085 84.0307 366.236 84.1489 366.387 84.2723C366.287 84.4522 366.176 84.6372 366.065 84.7863C365.889 84.5036 365.722 84.2312 365.561 83.9485C365.461 83.8354 365.37 83.6812 365.284 83.4962ZM362.263 77.1533C363.236 77.0554 364.216 77.0554 365.189 77.1533C365.325 77.1533 365.445 77.179 365.566 77.1996C365.839 77.2427 366.108 77.3133 366.367 77.4103C366.962 78.2601 367.329 79.2544 367.43 80.2939L367.158 80.335L366.891 80.3864C366.387 80.4738 365.884 80.5612 365.491 80.6434L364.987 80.7514C364.317 80.9004 363.93 81.0135 363.914 81.0186C363.849 80.8799 363.784 80.7514 363.713 80.6177C363.602 80.3967 363.486 80.1705 363.386 79.9495C363.285 79.7285 363.154 79.4766 363.048 79.2453C362.978 79.122 362.927 78.9986 362.872 78.8855C362.872 78.8341 362.822 78.793 362.801 78.7416C362.772 78.6871 362.747 78.6304 362.726 78.572C362.419 77.9346 362.137 77.2972 361.865 76.6702C361.834 76.6085 361.809 76.5417 361.784 76.48L362.167 76.4543V76.5879L362.263 77.1533ZM242.103 396.012C242.062 388.358 241.518 380.078 240.008 372.306C239.363 369.001 238.698 365.696 238.023 362.447C237.852 361.635 237.686 360.833 237.52 360.031L235.968 360.242H235.827C231.597 339.882 227.175 321.944 227.175 321.944C227.175 321.944 218.392 287.716 219.409 284.987C219.54 284.632 219.374 283.676 219.001 282.273C216.876 274.491 208.002 253.046 204.9 245.716C204.9 245.686 204.875 245.65 204.865 245.624C204.361 244.395 203.998 243.568 203.887 243.326L204.618 232.388L204.658 231.73L204.754 230.332L204.713 230.296L204.754 229.649C204.754 229.649 197.089 223.234 184.105 218.603C183.601 218.418 183.068 218.238 182.539 218.063C183.188 213.637 184.05 208.641 185.173 203.774C185.279 203.285 185.394 202.812 185.515 202.334C185.621 201.856 185.742 201.394 185.863 200.926C186.054 200.165 186.261 199.415 186.472 198.675C187.172 198.448 187.862 198.197 188.542 197.929L188.804 197.827C197.18 194.5 204.091 188.189 208.258 180.062C212.424 171.934 213.565 162.541 211.467 153.622C210.271 148.563 208.063 143.812 204.98 139.667C204.749 139.348 204.502 139.029 204.255 138.716C204.008 138.402 203.711 138.053 203.434 137.734C204.89 134.357 206.607 131.145 206.748 127.86C206.773 127.444 206.773 127.027 206.748 126.611V126.56C206.562 124.447 205.645 122.309 203.51 120.063C200.392 116.768 195.955 115.097 191.518 114.295C187.081 113.494 182.559 113.473 178.097 112.933C170.699 112.029 163.492 109.7 156.093 108.986C146.981 108.124 137.806 109.72 129.487 113.612C123.982 116.182 118.407 120.674 118.075 126.837C117.803 131.931 121.278 136.814 120.401 141.846C119.53 146.791 114.595 150.682 115.028 155.683C115.194 157.636 116.176 159.384 117.405 160.941C117.828 161.455 118.276 161.969 118.74 162.483C120.532 164.421 122.507 166.282 123.509 168.723C123.549 168.826 123.589 168.929 123.625 169.032C124.476 171.443 124.093 174.491 121.988 175.873C122 175.883 122.008 175.895 122.013 175.909C122.043 175.95 122.074 175.981 122.099 176.022C122.102 176.014 122.102 176.005 122.099 175.997C122.845 176.9 123.851 177.54 124.974 177.827L125.402 177.96C125.055 178.346 124.728 178.747 124.395 179.168L124.179 179.461C123.624 180.223 123.119 181.021 122.668 181.851C122.411 182.314 122.164 182.776 121.958 183.239C121.267 184.649 120.768 186.148 120.472 187.695C119.933 191.098 120.694 194.645 119.878 197.976C118.87 202.088 115.683 205.244 113.885 209.063C110.48 216.259 112.409 224.704 113.094 232.65C114.026 243.445 112.515 254.285 111.009 265.007C110.21 270.709 109.411 276.416 108.612 282.129C106.597 296.466 104.583 310.803 102.568 325.141C101.833 330.394 100.962 335.935 97.5319 339.99H97.5671C97.5671 339.99 97.5671 340.021 97.5319 340.031C98.5614 340.491 99.6564 340.779 100.775 340.885C105.252 341.342 109.997 339.132 114.026 336.716C117.216 334.834 120.238 332.669 123.056 330.245C122.643 331.787 122.199 333.468 121.726 335.277C121.728 335.294 121.728 335.311 121.726 335.328C116.04 357.431 106.894 397.95 106.894 397.95C106.894 397.95 106.063 399.713 104.986 402.339H247.008C245.346 400.283 243.8 398.315 242.591 396.726L242.103 396.012ZM136.946 191.643C136.981 191.581 137.006 191.525 137.041 191.468C137.041 191.633 137.041 191.792 137.041 191.946C137.041 192.1 137.041 192.239 137.041 192.383C137.041 192.527 137.041 192.512 137.041 192.584C137.041 192.656 137.041 192.584 137.041 192.584C137.041 192.794 136.996 193.005 136.961 193.216C136.961 193.216 136.961 193.242 136.961 193.262L137.464 193.452L138.049 193.699C141.5 195.09 144.995 196.35 148.534 197.477C148.897 197.595 149.264 197.708 149.632 197.816L149.707 198.454C149.798 199.106 149.884 199.769 149.964 200.433C149.964 200.433 149.964 200.463 149.964 200.484C150.191 202.319 150.413 204.149 150.609 205.938C150.609 205.938 141.362 202.339 141.478 207.803C141.473 207.901 141.473 207.999 141.478 208.096C141.468 208.226 141.468 208.357 141.478 208.487C141.564 212.743 142.868 215.267 143.13 216.562C143.114 216.616 143.087 216.665 143.05 216.706C142.826 217.202 142.749 217.754 142.828 218.294C142.819 219.214 142.89 220.132 143.039 221.039C142.768 221.209 142.501 221.378 142.234 221.553C142.032 221.682 141.841 221.825 141.644 221.969C140.409 217.595 138.793 213.343 136.815 209.263C135.43 206.354 133.873 203.321 133.889 200.129C133.889 199.924 133.889 199.713 133.914 199.502C133.97 198.577 134.143 197.663 134.427 196.783C134.543 196.449 134.669 196.12 134.81 195.796C135.139 195.027 135.507 194.275 135.913 193.545C136.175 193.062 136.452 192.584 136.719 192.1C136.805 191.957 136.885 191.808 136.966 191.664L136.946 191.643ZM363.073 79.2453C363.003 79.122 362.953 78.9986 362.897 78.8855C362.897 78.8341 362.847 78.793 362.827 78.7416C362.717 78.7944 362.604 78.8408 362.489 78.8804C362.268 78.9678 362.041 79.05 361.809 79.1168C361.578 79.1836 361.482 79.2196 361.306 79.2607L360.857 79.379L360.898 79.4715C361.084 79.4304 361.265 79.3944 361.452 79.343L361.502 79.9804C361.714 79.9804 361.91 79.9495 362.101 79.9495H362.373C362.766 79.9495 363.109 79.9495 363.381 79.9495C363.275 79.7182 363.164 79.4766 363.073 79.2453Z" fill="url(#paint1_linear_4_6)"/>
<path d="M253.031 154.742L250.01 156.105C250.01 156.105 230.313 234.203 230.313 240.515C230.313 246.827 272.078 281.949 272.078 281.949L278.595 237.055C278.595 237.055 269.238 134.105 253.031 154.742Z" fill="#E8F5FF"/>
<path d="M344.646 129.901L327.195 120.607C326.218 116.355 324.483 112.321 322.078 108.708C319.525 104.946 316.13 101.25 311.9 99.3223C301.208 94.429 357.126 68.7441 357.126 68.7441C358.006 71.8296 359.044 74.8663 360.233 77.842C363.114 85.0998 367.893 94.4856 374.052 97.1584C384.523 101.707 344.646 129.901 344.646 129.901Z" fill="#FFB0B1"/>
<path opacity="0.1" d="M360.233 77.842C357.844 86.4182 352.875 94.0116 346.029 99.55C339.183 105.088 330.805 108.292 322.078 108.708C319.525 104.946 316.13 101.25 311.9 99.3223C301.208 94.429 357.125 68.7441 357.125 68.7441C358.006 71.8296 359.043 74.8663 360.233 77.842Z" fill="black"/>
<path d="M361.804 64.8737C361.806 73.2847 359.364 81.5075 354.787 88.5019C350.21 95.4964 343.703 100.948 336.09 104.168C328.476 107.388 320.098 108.232 312.015 106.591C303.932 104.951 296.507 100.902 290.68 94.9546C284.852 89.0074 280.883 81.43 279.275 73.1806C277.667 64.9311 278.492 56.3804 281.646 48.6097C284.8 40.839 290.141 34.1974 296.994 29.525C303.847 24.8526 311.903 22.3592 320.144 22.3603C325.622 22.3344 331.05 23.4164 336.116 25.5436C341.181 27.6709 345.784 30.8014 349.657 34.7542C353.53 38.707 356.598 43.4039 358.683 48.5736C360.768 53.7432 361.829 59.2833 361.804 64.8737Z" fill="#FFB0B1"/>
<path d="M367.818 124.442L356.456 151.499L346.434 169.458H314.353L304.995 144.904L308.788 119.441H333.289L349.108 118.531L354.451 116.711L357.896 118.706L367.818 124.442Z" fill="#575A89"/>
<path opacity="0.1" d="M363.904 88.3741C363.904 88.3741 370.99 89.9161 364.645 95.2258C358.299 100.535 336.406 117.421 336.406 117.421C336.406 117.421 344.097 124.411 342.505 132.599L367.984 118.104L372.516 94.9122C372.516 94.9122 373.025 87.9423 363.904 88.3741Z" fill="black"/>
<path opacity="0.1" d="M341.417 117.421L325.211 120.15C325.211 120.15 328.555 132.769 326.883 136.351C326.832 136.463 326.79 136.578 326.757 136.696L320.144 154.938L325.1 169.263L342.253 145.388L336.406 136.351C336.406 136.351 342.586 127.994 346.262 125.095C349.939 122.196 341.417 117.421 341.417 117.421Z" fill="black"/>
<path d="M341.417 116.716L325.211 119.441C325.211 119.441 328.555 132.059 326.883 135.642C326.832 135.753 326.79 135.869 326.757 135.986L320.144 154.229L325.1 168.554L342.253 144.663L336.406 135.627C336.406 135.627 342.586 127.269 346.262 124.37C349.939 121.471 341.417 116.716 341.417 116.716Z" fill="#DCE6F2"/>
<path d="M364.584 87.0119C364.584 87.0119 371.67 88.554 365.32 93.8636C358.969 99.1733 336.406 117.421 336.406 117.421C336.406 117.421 344.762 123.049 343.175 131.232L368.654 116.742L373.186 93.5501C373.186 93.5501 373.69 86.5802 364.584 87.0119Z" fill="#575A89"/>
<path opacity="0.1" d="M323.191 110.317C323.191 110.317 324.738 113.267 331.562 118.587C331.562 118.587 320.2 124.755 324.546 133.427L307.166 128.801L304.492 120.273L323.191 110.317Z" fill="black"/>
<path d="M322.521 109.639C322.521 109.639 324.068 112.589 330.892 117.909C330.892 117.909 319.53 124.046 323.876 132.743L306.501 128.117L303.827 119.595L322.521 109.639Z" fill="#575A89"/>
<path opacity="0.1" d="M367.818 124.442L356.456 151.499L346.454 169.459H314.353L304.995 144.905L308.783 119.441H315.597C315.486 125.383 317.611 132.363 317.475 134.958C317.243 139.225 323.71 162.242 323.71 162.242C323.71 162.242 337.242 139.903 342.586 137.914C345.945 136.665 353.061 126.272 357.891 118.706L367.818 124.442Z" fill="black"/>
<path d="M412.575 266.827L411.421 268.307C411.421 268.307 419.777 311.108 417.465 320.828C417.072 322.58 416.848 324.367 416.795 326.164V326.241C416.387 336.13 419.313 348.965 419.313 348.965C419.313 348.965 421.65 386.796 420.32 402.355H263.884C262.968 379.348 261.981 349.541 262.877 346.235C264.388 340.782 267.41 320.998 267.41 320.998L267.742 311.622C267.742 311.622 267.742 302.56 268.014 292.465C268.13 287.927 268.301 283.162 268.548 278.937C268.865 273.622 269.308 269.145 269.918 266.945C270.293 265.277 270.509 263.577 270.562 261.867C270.562 261.707 270.562 261.543 270.593 261.378C270.593 260.864 270.643 260.309 270.663 259.739C270.663 259.579 270.663 259.42 270.663 259.225C270.759 255.914 270.724 251.987 270.618 247.916C270.618 247.695 270.618 247.469 270.618 247.243C270.532 244.19 270.406 241.075 270.265 238.114C269.827 228.862 269.258 221.039 269.258 221.039L250.045 156.069L255.222 143.054L269.59 134.069L296.157 117.698C309.115 106.827 317.646 108.132 320.9 109.325C321.216 109.435 321.525 109.564 321.826 109.71C321.927 109.762 322.008 109.803 322.083 109.849C322.187 109.899 322.286 109.958 322.38 110.024C321.49 110.461 320.716 111.112 320.124 111.921C319.458 112.841 318.983 113.89 318.729 115.005C318.559 115.695 318.44 116.398 318.372 117.107C318.306 117.852 318.281 118.623 318.281 119.4C318.317 121.102 318.46 122.8 318.709 124.483C318.709 124.514 318.709 124.555 318.709 124.596C318.875 125.799 319.082 126.976 319.283 128.081C319.281 128.1 319.281 128.119 319.283 128.138C319.515 129.428 319.747 130.62 319.903 131.648C319.933 131.833 319.958 132.003 319.983 132.162C320.094 132.842 320.146 133.53 320.139 134.218C320.196 135.881 320.415 137.534 320.794 139.153C320.925 139.831 321.076 140.556 321.242 141.312C321.469 142.34 321.716 143.46 321.983 144.601C322.129 145.228 322.285 145.876 322.446 146.518C322.506 146.775 322.572 147.032 322.632 147.295L322.733 147.701C323.806 152.054 324.969 156.387 325.684 159.009C326.107 160.551 326.374 161.502 326.374 161.502C326.374 161.502 333.959 148.986 340.012 141.862C340.103 141.759 340.184 141.661 340.269 141.569C340.869 140.864 341.458 140.222 342.022 139.656C343.256 138.402 344.364 137.508 345.255 137.179C345.445 137.108 345.629 137.02 345.804 136.917C348.282 135.483 352.281 130.276 356.023 124.822C356.39 124.308 356.748 123.748 357.11 123.219C357.941 121.995 358.747 120.767 359.508 119.59C360.092 118.69 360.651 117.816 361.18 116.984C363.698 112.985 365.471 110.003 365.471 110.003L368.966 109.844L369.575 109.813H369.983L385.852 109.063C385.852 109.063 386.537 109.181 387.665 109.412C387.726 109.412 387.786 109.412 387.852 109.453C393.482 110.595 409.125 114.208 410.082 119.22C411.25 125.357 436.482 133.545 436.482 133.545C436.814 137.657 442.994 140.366 442.994 140.366C442.994 140.366 452.351 165.604 449.848 175.493C447.375 185.259 456.284 209.417 456.521 210.096L454.814 212.296L412.575 266.827Z" fill="#E8F5FF"/>
<path opacity="0.1" d="M363.899 86.5803C363.899 86.5803 379.345 82.1084 382.856 91.3143C386.366 100.52 394.218 137.698 394.218 137.698C394.218 137.698 373.831 141.62 368.487 137.698C365.353 135.371 361.474 134.335 357.624 134.799L346.096 142.813L342.692 141.784C342.692 141.784 361.134 113.802 365.143 104.293C369.152 94.7838 370.507 90.533 363.899 86.5803Z" fill="black"/>
<path d="M363.23 84.5242C363.23 84.5242 378.686 80.0523 382.211 89.2582C385.737 98.464 393.573 135.642 393.573 135.642C393.573 135.642 373.191 139.564 367.843 135.642C364.71 133.314 360.833 132.279 356.985 132.743L345.447 140.756L342.042 139.728C342.042 139.728 360.485 111.746 364.494 102.237C368.503 92.7277 369.837 88.4872 363.23 84.5242Z" fill="#E8F5FF"/>
<path opacity="0.1" d="M259.548 232.841C259.548 232.841 271.076 235.74 273.252 242.391C275.428 249.042 264.731 249.212 264.731 249.212C264.731 249.212 258.214 237.446 259.548 232.841Z" fill="black"/>
<path opacity="0.1" d="M302.487 281.949C302.487 281.949 274.254 340.952 280.771 346.58C287.288 352.208 302.487 281.949 302.487 281.949Z" fill="black"/>
<path opacity="0.1" d="M341.417 238.469C341.417 238.469 363.975 295.781 359.462 304.632C354.95 313.483 369.152 304.632 369.152 304.632L341.417 238.469Z" fill="black"/>
<path d="M372.829 295.082C372.829 295.082 296.64 298.834 318.865 323.049C341.09 347.263 386.699 324.077 386.699 324.077L372.829 295.082Z" fill="#FFB0B1"/>
<path opacity="0.1" d="M361.804 64.8736C361.811 70.4506 360.738 75.9741 358.647 81.1265C357.947 81.2087 357.247 81.2601 356.572 81.2909C355.564 79.0345 356.103 76.4284 356.123 73.9458C356.144 71.4632 355.247 68.5436 352.905 67.8754C348.237 66.5338 345.013 75.4416 340.41 73.8327C336.885 72.6094 337.807 67.1506 335.777 63.9998C334.17 61.5069 330.952 60.8027 328.449 59.2401C323.126 55.9042 323.287 50.5688 320.814 45.5213C318.226 40.2321 312.756 41.7947 308.007 44.9147C304.401 47.2894 301.289 50.4711 297.431 52.3627C294.092 54.0075 290.34 54.6038 286.638 54.6911C284.359 54.7813 282.08 54.5354 279.87 53.9612C282.469 43.9864 288.535 35.3171 296.935 29.57C305.336 23.8229 315.498 21.3903 325.526 22.726C335.554 24.0617 344.764 29.0744 351.438 36.8293C358.112 44.5842 361.795 54.5519 361.799 64.8736H361.804Z" fill="black"/>
<path d="M308.022 43.5528C304.411 45.9275 301.304 49.104 297.446 51.0059C294.107 52.6455 290.355 53.2418 286.653 53.3292C282.121 53.432 277.241 52.6198 274.143 49.2788C271.298 46.1948 270.618 41.4505 271.822 37.4053C273.025 33.36 275.911 30.0036 279.3 27.5723C282.69 25.1411 286.623 23.4603 288.869 19.9805C290.058 18.1403 290.632 15.9712 291.619 14.0129C294.777 7.74712 301.878 4.35468 308.742 3.93319C315.607 3.51171 322.411 5.59857 328.948 7.8602C335.485 10.1218 342.072 12.6096 348.972 13.0774C352.044 13.2727 355.237 13.0774 358.088 14.2647C361.92 15.853 364.433 19.6515 366.146 23.5168C368.064 27.8756 369.258 32.6353 369.057 37.395C368.634 47.5569 362.056 57.5286 364.947 67.2639C365.713 69.8596 367.148 72.5222 366.382 75.1179C365.264 78.9061 360.475 79.7697 356.602 79.9496C355.595 77.6931 356.134 75.0819 356.154 72.6044C356.174 70.1269 355.277 67.2022 352.941 66.534C348.267 65.2027 345.044 74.095 340.451 72.4913C336.951 71.2628 337.857 65.8092 335.822 62.6584C334.216 60.1603 330.993 59.4613 328.495 57.8987C323.171 54.5628 323.332 49.2274 320.86 44.1799C318.251 38.865 312.776 40.4276 308.022 43.5528Z" fill="#575A89"/>
<path d="M234.145 239.147L230.303 240.515C230.303 240.515 231.813 263.707 226.777 270.358C221.741 277.009 243.316 293.545 243.316 293.545C243.316 293.545 272.889 293.375 273.725 290.975C274.561 288.574 272.214 248.004 272.214 248.004C272.214 248.004 256.34 241.692 257.675 231.633C257.675 231.633 252.83 255.334 245.648 254.311C238.466 253.288 230.313 247.166 234.145 239.147Z" fill="#E8F5FF"/>
<path opacity="0.1" d="M246.963 261.486C252.562 261.486 257.101 257.249 257.101 252.023C257.101 246.797 252.562 242.56 246.963 242.56C241.364 242.56 236.825 246.797 236.825 252.023C236.825 257.249 241.364 261.486 246.963 261.486Z" fill="black"/>
<path d="M258.047 239.831C258.047 239.831 256.033 177.081 238.497 191.062C220.961 205.043 220.789 221.764 224.128 226.703C227.467 231.643 238.174 256.372 238.174 256.372C239.849 257.362 241.73 257.934 243.663 258.04C245.596 258.145 247.526 257.782 249.295 256.98C251.064 256.177 252.621 254.959 253.84 253.424C255.058 251.888 255.903 250.08 256.305 248.148L258.047 239.831Z" fill="#FFB0B1"/>
<path opacity="0.1" d="M367.44 80.885C367.358 80.6093 367.201 80.3632 366.987 80.1757C366.12 79.3687 364.257 79.086 361.447 79.3327L361.562 80.6897C365.309 80.3607 366.05 81.1214 366.145 81.2499V81.3784L366.261 81.5481C366.729 82.1889 367.059 82.9222 367.233 83.7011C367.406 84.4801 367.418 85.2873 367.269 86.0713C366.448 90.2605 361.406 93.5964 361.356 93.6324L361.235 93.7043L361.16 93.8225C358.984 97.1173 346.68 106.416 343.462 108.821L343.18 108.492C341.74 109.767 329.079 121.08 328.394 125.413C327.951 128.132 324.949 129.186 323.861 129.479C322.713 128.59 318.986 125.562 317.047 122.17C315.229 118.978 322.547 112.748 323.191 110.317L322.184 109.263C322.078 109.654 312.681 118.618 315.294 123.198C317.39 126.873 321.217 130.019 322.557 131.057C322.129 135.025 319.464 158.325 315.37 163.846C310.283 170.708 306.008 205.29 306.481 217.364C306.899 228.091 304.154 248.353 294.988 257.055C293.401 258.628 291.487 259.815 289.388 260.527C287.289 261.239 285.06 261.458 282.866 261.167H282.755H282.644C282.513 261.167 269.218 262.555 258.047 252.943C248.907 245.095 243.729 232.286 242.652 214.861H242.43L242.339 209.787C244.818 209.393 247.05 208.033 248.566 205.994C250.083 203.954 250.766 201.395 250.472 198.852C250.179 196.31 248.931 193.982 246.991 192.359C245.051 190.736 242.57 189.944 240.07 190.148C237.569 190.353 235.244 191.538 233.582 193.456C231.92 195.374 231.052 197.874 231.158 200.432C231.265 202.99 232.339 205.406 234.154 207.172C235.97 208.939 238.386 209.919 240.894 209.906H241.005L241.095 214.948L240.652 214.979C241.76 232.969 247.199 246.277 256.768 254.496C264.041 260.647 273.331 263.75 282.76 263.177C283.429 263.252 284.102 263.29 284.775 263.29C289.097 263.313 293.255 261.606 296.358 258.536C306.013 249.361 308.949 228.353 308.49 217.261C307.987 204.467 312.474 171.129 316.977 165.059C321.388 159.101 324.063 135.889 324.531 131.391C326.127 130.934 329.738 129.489 330.353 125.737C330.796 123.023 339.252 114.66 344.454 110.029L344.298 109.844C347.098 107.757 355.806 101.178 360.122 96.9528C361.462 95.6421 362.791 94.3314 364.181 93.0824C365.853 91.5712 367.979 89.1708 368.538 86.3335C368.728 85.3969 368.729 84.4304 368.54 83.4934C368.352 82.5565 367.977 81.6688 367.44 80.885Z" fill="black"/>
<path d="M322.386 130.733C322.174 130.584 317.158 126.919 314.645 122.509C312.036 117.929 321.434 108.97 321.535 108.58L322.542 109.633C321.902 112.059 314.584 118.294 316.403 121.481C318.694 125.506 323.519 129.027 323.569 129.063L322.386 130.733Z" fill="#353146"/>
<path d="M342.808 109.818L342.022 108.713C342.183 108.595 358.002 96.9169 360.495 93.139L360.575 93.0259L360.691 92.9488C360.742 92.9128 365.783 89.5821 366.604 85.3878C366.755 84.6047 366.744 83.7979 366.57 83.0196C366.397 82.2413 366.065 81.5088 365.597 80.8697L365.481 80.6949V80.5715C365.38 80.4379 364.64 79.6823 360.893 80.0113L360.777 78.6492C363.592 78.4024 365.451 78.6851 366.317 79.4921C366.532 79.6815 366.691 79.9292 366.775 80.2066C367.32 80.9881 367.702 81.8752 367.897 82.8131C368.093 83.7511 368.099 84.72 367.913 85.6602C367.354 88.5027 365.234 90.9031 363.557 92.4091C362.172 93.6581 360.837 94.9791 359.503 96.2796C354.441 101.229 343.362 109.412 342.808 109.818Z" fill="#E8F5FF"/>
<path d="M241.689 207.998L240.355 208.023L240.504 216.302L241.838 216.277L241.689 207.998Z" fill="#E8F5FF"/>
<path d="M240.244 209.253C245.626 209.253 249.989 204.8 249.989 199.307C249.989 193.814 245.626 189.361 240.244 189.361C234.862 189.361 230.499 193.814 230.499 199.307C230.499 204.8 234.862 209.253 240.244 209.253Z" fill="#587EEC"/>
<path d="M240.244 207.567C244.714 207.567 248.337 203.869 248.337 199.307C248.337 194.745 244.714 191.047 240.244 191.047C235.774 191.047 232.151 194.745 232.151 199.307C232.151 203.869 235.774 207.567 240.244 207.567Z" fill="#E8F5FF"/>
<path d="M284.14 262.627C283.467 262.628 282.795 262.592 282.126 262.519C272.697 263.086 263.409 259.984 256.134 253.838C246.565 245.614 241.136 232.321 240.018 214.316L242.032 214.187C243.11 231.612 248.287 244.426 257.433 252.27C268.603 261.856 281.894 260.494 282.025 260.494H282.136H282.247C284.441 260.783 286.671 260.563 288.77 259.851C290.87 259.139 292.785 257.953 294.374 256.382C303.535 247.68 306.28 227.418 305.862 216.69C305.358 204.606 309.634 170.024 314.725 163.167C319.182 157.158 321.947 130.075 321.978 129.803L322.053 129.032L322.798 128.898C322.844 128.898 327.195 128.055 327.739 124.735C328.444 120.407 341.085 109.094 342.52 107.814L343.835 109.356C338.612 113.982 330.156 122.35 329.733 125.069C329.119 128.831 325.508 130.271 323.916 130.723C323.413 135.226 320.759 158.433 316.362 164.39C311.86 170.461 307.372 203.799 307.876 216.593C308.309 227.685 305.403 248.698 295.749 257.867C292.64 260.946 288.471 262.655 284.14 262.627Z" fill="#353146"/>
<g opacity="0.1">
<path opacity="0.1" d="M366.095 52.7226C366.921 49.6077 367.918 46.4723 368.613 43.3163C367.782 46.4877 366.78 49.6077 366.095 52.7226Z" fill="black"/>
<path opacity="0.1" d="M357.67 77.1996C356.662 74.9431 357.201 72.332 357.221 69.8544C357.241 67.3769 356.345 64.4779 354.008 63.784C349.335 62.4527 346.111 71.3502 341.518 69.7414C337.993 68.5129 338.925 63.0593 336.89 59.9084C335.283 57.4103 332.065 56.7113 329.567 55.1487C324.239 51.8128 324.4 46.4774 321.932 41.4299C319.339 36.1356 313.874 37.6982 309.12 40.8234C305.509 43.1981 302.402 46.3798 298.544 48.2765C295.205 49.9161 291.453 50.5124 287.751 50.5998C283.244 50.7077 278.338 49.8904 275.241 46.5494C272.854 43.9794 271.993 40.2117 272.486 36.6805C272.401 36.9221 272.325 37.1636 272.25 37.4052C271.041 41.4505 271.746 46.205 274.571 49.2788C277.669 52.6198 282.574 53.4319 287.081 53.3291C290.788 53.2418 294.535 52.6455 297.879 51.0058C301.747 49.104 304.854 45.9274 308.455 43.5527C313.209 40.4276 318.679 38.865 321.268 44.1593C323.735 49.2068 323.579 54.5422 328.902 57.8781C331.421 59.4201 334.619 60.1397 336.23 62.6378C338.245 65.7989 337.353 71.2423 340.859 72.4707C345.447 74.0744 348.67 65.1821 353.343 66.5134C355.68 67.1816 356.582 70.1114 356.557 72.5838C356.531 75.0562 356.008 77.6725 357.005 79.929C360.878 79.7491 365.667 78.9009 366.79 75.0973C366.945 74.5514 367.016 73.9845 367.002 73.4165C365.365 76.3001 361.155 77.0402 357.67 77.1996Z" fill="black"/>
</g>
<path opacity="0.1" d="M448.69 203.851L454.537 210.163C454.537 210.163 459.216 244.945 461.552 248.199C463.889 251.453 469.409 264.395 464.227 274.115C464.227 274.115 462.555 279.404 463.557 281.62C464.559 283.835 456.043 294.922 456.043 294.922C456.043 294.922 444.847 305.151 442.505 306.688C440.163 308.225 427.805 320.499 423.629 320.669C419.454 320.838 418.09 326.128 418.09 326.128L394.53 326.981C394.53 326.981 381.516 326.287 378.686 328.163C378.686 328.163 380.197 307.87 365.657 294.568L384.201 287.747C384.201 287.747 391.221 284.663 393.392 281.44C394.757 279.464 396.694 277.974 398.932 277.179C398.932 277.179 404.109 273.427 404.275 271.381C404.441 269.335 410.606 266.827 410.606 266.827L407.116 236.423L408.954 185.948C408.954 185.948 414.801 143.655 427.165 146.046C439.529 148.436 448.69 203.851 448.69 203.851Z" fill="black"/>
<path d="M450.704 203.851L456.551 210.163C456.551 210.163 461.23 244.945 463.567 248.199C465.904 251.453 471.423 264.395 466.241 274.115C466.241 274.115 464.574 279.404 465.576 281.62C466.578 283.835 458.057 294.922 458.057 294.922C458.057 294.922 446.861 305.151 444.52 306.688C442.178 308.225 429.819 320.499 425.644 320.669C421.469 320.838 420.104 326.128 420.104 326.128L396.544 326.981C396.544 326.981 383.521 326.287 380.7 328.163C380.7 328.163 382.211 307.87 367.671 294.568L386.215 287.747C386.215 287.747 393.235 284.663 395.406 281.44C396.772 279.464 398.709 277.974 400.946 277.179C400.946 277.179 406.123 273.427 406.289 271.381C406.456 269.335 412.62 266.827 412.62 266.827L409.13 236.423L410.968 185.948C410.968 185.948 416.815 143.655 429.179 146.046C441.543 148.436 450.704 203.851 450.704 203.851Z" fill="#E8F5FF"/>
<path opacity="0.1" d="M428.968 254.84C428.968 254.84 446.177 250.214 450.689 255.868C455.202 261.522 428.968 254.84 428.968 254.84Z" fill="black"/>
<path opacity="0.1" d="M424.959 262.596C430.806 266.775 448.851 266.945 448.851 266.945L424.959 262.596Z" fill="black"/>
<path opacity="0.1" d="M433.813 283.486C434.316 283.655 446.217 296.619 451.213 292.697C456.209 288.775 433.813 283.486 433.813 283.486Z" fill="black"/>
<path opacity="0.1" d="M273.539 174.691C273.539 174.691 277.034 199.25 275.312 209.253C273.589 219.255 279.875 231.648 279.875 231.648L273.539 174.691Z" fill="black"/>
<path d="M196.162 184.678C192.133 187.901 189.192 195.529 187.061 203.912C183.345 218.536 182.131 235.493 182.131 235.493C182.131 235.493 150.05 227.988 152.387 224.581C153.857 222.437 151.883 206.287 150.236 194.578C149.254 187.66 148.378 182.288 148.378 182.288C148.378 182.288 207.191 175.807 196.162 184.678Z" fill="#FFB0B1"/>
<path opacity="0.1" d="M196.162 183.995C192.133 187.223 189.192 194.845 187.061 203.229C180.67 205.21 173.872 205.388 167.389 203.746C160.905 202.103 154.979 198.701 150.236 193.9C149.254 186.976 148.378 181.605 148.378 181.605C148.378 181.605 207.191 175.128 196.162 183.995Z" fill="black"/>
<path d="M213.406 165.624C213.409 174.564 210.314 183.217 204.667 190.052C199.02 196.887 191.186 201.462 182.552 202.969C173.917 204.475 165.039 202.816 157.488 198.284C149.938 193.752 144.201 186.64 141.294 178.206C138.388 169.772 138.498 160.561 141.605 152.203C144.713 143.844 150.618 136.877 158.275 132.534C165.932 128.192 174.847 126.754 183.443 128.475C192.038 130.196 199.761 134.965 205.242 141.939C210.525 148.656 213.404 157.011 213.406 165.624Z" fill="#FFB0B1"/>
<path opacity="0.1" d="M242.656 402.355H232.08L231.189 383.29L230.257 363.557C230.257 363.557 232.659 363.192 236.487 362.648L238.033 362.437H238.159C238.995 366.441 239.821 370.553 240.617 374.66C241.941 381.951 242.631 389.347 242.677 396.762C242.677 397.276 242.677 397.79 242.677 398.273C242.707 399.646 242.677 401.018 242.656 402.355Z" fill="black"/>
<path d="M240.627 402.355H107.992C108.566 401.023 108.949 400.216 108.949 400.216C108.949 400.216 119.56 352.835 124.954 332.789C124.956 332.772 124.956 332.755 124.954 332.738C125.628 330.015 126.442 327.329 127.392 324.694C127.453 324.514 127.533 324.342 127.629 324.18C130.298 319.749 133.642 314.974 128.963 308.153C124.284 301.332 125.941 271.319 125.941 271.319C125.941 271.319 131.622 245.737 137.636 232.095C138.548 229.982 139.843 228.064 141.453 226.441C141.976 225.919 142.535 225.434 143.125 224.992C143.574 224.648 144.041 224.33 144.525 224.041L144.621 223.979C147.147 222.517 149.952 221.629 152.845 221.373C154.9 221.154 156.975 221.213 159.014 221.548C168.765 223.008 176.571 225.449 182.776 228.23C199.592 235.77 204.683 245.876 204.784 246.087L204.824 246.174C205.499 247.783 215.37 271.304 218.926 282.278C219.847 285.136 220.351 287.145 220.15 287.695C219.142 290.42 227.835 324.524 227.835 324.524C227.835 324.524 231.864 340.972 235.893 360.252C236.069 361.054 236.235 361.856 236.396 362.668C237.117 366.169 237.832 369.736 238.522 373.298C239.859 380.639 240.548 388.088 240.582 395.554C240.656 397.881 240.671 400.148 240.627 402.355Z" fill="#EB5569"/>
<path opacity="0.1" d="M152.054 209.644C152.054 209.644 142.904 206.046 143.014 211.504C143.125 216.963 145.245 219.574 144.576 220.371C143.906 221.168 144.908 225.943 144.908 225.943C144.908 225.943 157.272 225.943 162.953 228.554C168.634 231.165 189.574 236.398 192.249 237.991C194.923 239.584 204.839 246.729 204.839 246.729L205.731 233.2C205.731 233.2 195.482 224.56 178.666 220.129C161.85 215.699 152.054 209.644 152.054 209.644Z" fill="black"/>
<path d="M152.054 208.96C152.054 208.96 142.904 205.362 143.014 210.821C143.125 216.279 145.245 218.89 144.576 219.687C143.906 220.484 144.908 225.259 144.908 225.259C144.908 225.259 157.272 225.259 162.953 227.875C168.634 230.492 189.574 235.719 192.249 237.307C194.923 238.896 204.839 246.045 204.839 246.045L205.741 232.558C205.741 232.558 195.492 223.917 178.676 219.487C161.86 215.056 152.054 208.96 152.054 208.96Z" fill="#EB5569"/>
<path opacity="0.1" d="M179.678 241.517C179.678 241.517 197.164 260.838 196.273 266.189C195.381 271.54 179.678 241.517 179.678 241.517Z" fill="black"/>
<path opacity="0.1" d="M151.274 311.314C151.274 311.314 138.457 323.367 134.679 324.051C130.902 324.735 137.575 327.007 141.916 325.192C146.258 323.378 155.514 318.603 155.514 318.603L151.274 311.314Z" fill="black"/>
<path d="M245.834 402.355H215.944C211.764 398.654 207.811 395.225 205.292 393.164C201.263 389.864 198.358 385.007 196.504 381.101C196.086 380.211 195.724 379.379 195.416 378.623C194.866 377.321 194.382 375.992 193.966 374.64L216.1 361.224C217.324 362.286 218.473 363.433 219.54 364.658L219.807 364.971C221.036 366.451 222.119 368.132 222.214 369.51C222.325 371.113 226.697 377.317 231.164 383.275C235.696 389.335 240.34 395.128 240.647 395.518C240.647 395.518 241.412 396.582 242.661 398.217C243.543 399.399 244.631 400.818 245.834 402.355Z" fill="#FFB0B1"/>
<path opacity="0.1" d="M205.242 141.939C204.18 144.385 203.228 146.925 203.087 149.649C202.689 157.513 203.334 175.097 194.802 179.045C190.577 180.988 186.054 176.722 181.421 176.619C178.087 176.547 175.03 178.706 172.995 181.404C170.961 184.103 169.696 187.305 168.221 190.358C166.878 193.129 165.33 195.793 163.592 198.325C163.073 199.1 162.501 199.837 161.88 200.53C156.678 198.29 152.046 194.867 148.336 190.523C144.626 186.178 141.937 181.027 140.473 175.461C139.01 169.896 138.81 164.062 139.89 158.406C140.97 152.75 143.301 147.42 146.704 142.822C150.108 138.224 154.496 134.48 159.532 131.875C164.568 129.27 170.121 127.872 175.767 127.789C181.413 127.706 187.002 128.939 192.11 131.395C197.218 133.85 201.71 137.464 205.242 141.959V141.939Z" fill="black"/>
<path d="M202.417 148.261C202.014 156.125 202.664 173.709 194.127 177.652C189.902 179.595 185.379 175.334 180.746 175.231C177.412 175.154 174.36 177.318 172.32 180.011C170.281 182.704 169.027 185.912 167.546 188.97C166.202 191.741 164.655 194.404 162.918 196.937C161.88 198.438 160.732 199.944 159.135 200.787C156.355 202.267 152.986 201.435 150.005 200.484C146.137 199.24 142.326 197.838 138.572 196.279C138.659 195.701 138.702 195.117 138.703 194.532C138.592 194.748 138.472 194.948 138.351 195.164L138.114 195.585C137.686 196.356 137.268 197.127 136.885 197.919C136.739 198.222 136.598 198.536 136.472 198.849C135.966 200.016 135.648 201.259 135.53 202.53C135.274 205.958 136.931 209.212 138.401 212.296C144.057 224.226 147.552 238.176 143.296 250.692C141.453 256.135 138.26 260.972 135.928 266.23C131.852 275.544 130.652 285.903 132.489 295.93C133.652 302.159 135.984 308.327 135.41 314.645C134.402 325.516 125.216 333.606 116.015 339.168C111.044 342.159 104.96 344.822 99.6824 342.457C103.047 338.448 103.913 332.902 104.638 327.669C106.622 313.397 108.612 299.118 110.606 284.832C111.402 279.147 112.196 273.462 112.988 267.778C114.469 257.096 115.97 246.297 115.043 235.549C114.368 227.629 112.464 219.219 115.829 212.049C117.606 208.25 120.774 205.105 121.761 201.013C122.572 197.688 121.817 194.151 122.351 190.764C122.643 189.223 123.137 187.729 123.821 186.323C124.692 184.415 125.828 182.646 127.195 181.07C125.846 180.669 124.587 180.119 123.821 178.968C125.987 177.528 126.314 174.285 125.332 171.849C124.35 169.412 122.386 167.557 120.618 165.634C118.85 163.712 117.148 161.471 116.927 158.849C116.498 153.858 121.384 149.993 122.245 145.069C123.116 140.057 119.671 135.185 119.948 130.111C120.271 123.979 125.79 119.523 131.24 116.937C139.463 113.052 148.546 111.456 157.569 112.311C164.912 113.021 172.018 115.339 179.341 116.238C183.758 116.752 188.235 116.804 192.621 117.595C197.008 118.387 201.405 120.057 204.492 123.342C212.63 132.003 202.88 139.132 202.417 148.261Z" fill="#575A89"/>
<path opacity="0.1" d="M195.608 381.106C193.039 379.97 188.366 380.648 180.343 378.155C172.32 375.662 170.774 364.395 170.774 364.395V364.359C170.678 364.102 169.933 362.427 164.887 356.557C159.311 350.075 147.26 317.338 147.26 317.338C147.26 317.338 136.573 305.624 136.91 301.306C137.248 296.989 135.012 285.501 135.233 272.65C135.455 259.8 159.291 251.278 159.291 251.278C205.187 242.977 194.379 296.978 193.155 301.07C191.931 305.161 198.282 316.212 198.282 316.212C197.386 321.023 201.958 328.471 201.958 328.471C201.958 328.471 203.066 335.061 203.293 337.564C203.306 337.68 203.331 337.794 203.369 337.903C204.104 340.263 210.097 342.401 212.535 343.701C215.098 345.069 223.342 357.004 223.342 357.004C225.12 365.768 198.166 382.257 195.608 381.106Z" fill="black"/>
<path d="M196.943 379.05C194.379 377.908 189.7 378.592 181.683 376.094C173.665 373.596 172.114 362.339 172.114 362.339V362.303C172.023 362.041 171.273 360.371 166.226 354.501C160.651 348.019 148.6 315.277 148.6 315.277C148.6 315.277 137.913 303.568 138.245 299.25C138.577 294.932 136.351 283.444 136.573 270.605C136.795 257.765 160.616 249.248 160.616 249.248C206.511 240.946 195.704 294.948 194.48 299.039C193.256 303.131 199.607 314.182 199.607 314.182C198.71 318.993 203.283 326.441 203.283 326.441C203.283 326.441 204.391 333.031 204.623 335.534C204.631 335.65 204.655 335.764 204.693 335.873C205.429 338.232 211.422 340.371 213.864 341.671C216.423 343.033 224.672 354.974 224.672 354.974C226.46 363.722 199.506 380.211 196.943 379.05Z" fill="#EB5569"/>
<path opacity="0.1" d="M161.523 277.441C161.523 277.441 181.572 299.029 186.805 299.029C192.037 299.029 161.523 277.441 161.523 277.441Z" fill="black"/>
<path d="M196.942 379.05C194.379 377.909 189.7 378.592 181.683 376.094C173.665 373.596 172.114 362.339 172.114 362.339V362.303C177.427 358.705 190.884 348.543 196.187 344.827C199.919 342.221 202.966 338.392 204.749 335.853C205.484 338.212 211.477 340.35 213.92 341.651C216.478 343.013 224.727 354.953 224.727 354.953C226.46 363.722 199.506 380.211 196.942 379.05Z" fill="#FF748E"/>
<g opacity="0.1">
<path opacity="0.1" d="M123.851 179.024C123.877 179.065 123.912 179.101 123.942 179.142C124.093 178.947 124.249 178.752 124.41 178.567C124.239 178.737 124.052 178.89 123.851 179.024Z" fill="black"/>
<path opacity="0.1" d="M135.536 202.586C135.747 199.734 137.243 197.22 138.643 194.712C137.726 194.352 136.81 193.987 135.903 193.607C135.989 193.03 136.033 192.447 136.034 191.864C134.619 194.434 133.078 196.963 132.861 199.857C132.604 203.29 134.261 206.539 135.732 209.623C141.393 221.548 144.883 235.498 140.627 248.019C138.779 253.457 135.591 258.299 133.259 263.558C129.184 272.87 127.986 283.227 129.824 293.252C130.978 299.487 133.315 305.65 132.74 311.967C131.733 322.838 122.552 330.928 113.346 336.485C109.584 338.757 105.187 340.838 100.982 340.689C100.593 341.329 100.158 341.939 99.6824 342.514C104.965 344.894 111.044 342.216 116.015 339.214C125.226 333.663 134.428 325.593 135.435 314.701C136.009 308.384 133.672 302.221 132.514 295.986C130.675 285.963 131.87 275.606 135.938 266.292C138.255 261.039 141.478 256.192 143.306 250.754C147.562 238.233 144.067 224.282 138.411 212.358C136.946 209.253 135.279 206.02 135.536 202.586Z" fill="black"/>
<path opacity="0.1" d="M204.482 123.404C203.986 122.885 203.454 122.404 202.89 121.964C208.994 130.044 200.181 136.912 199.743 145.609C199.35 153.473 199.994 171.062 191.458 174.999C187.238 176.947 182.71 172.681 178.082 172.578C174.743 172.506 171.691 174.67 169.651 177.364C167.611 180.057 166.357 183.265 164.882 186.318C163.536 189.089 161.987 191.752 160.248 194.285C159.241 195.791 158.063 197.292 156.461 198.14C153.691 199.615 150.322 198.788 147.335 197.832C144.431 196.899 141.554 195.871 138.703 194.748C138.697 195.283 138.654 195.817 138.572 196.346C142.329 197.909 146.142 199.31 150.01 200.551C152.991 201.507 156.36 202.334 159.135 200.859C160.732 200.011 161.89 198.505 162.923 196.999C164.662 194.469 166.209 191.808 167.551 189.037C169.032 185.984 170.281 182.771 172.325 180.078C174.37 177.384 177.417 175.226 180.751 175.298C185.384 175.4 189.912 179.667 194.132 177.719C202.669 173.781 202.019 156.192 202.417 148.328C202.88 139.183 212.63 132.059 204.482 123.404Z" fill="black"/>
</g>
<path opacity="0.1" d="M138.119 195.591C137.691 196.362 137.273 197.133 136.89 197.924C136.744 198.227 136.603 198.541 136.477 198.854C133.838 196.141 127.412 189.69 123.826 187.69C124.698 185.783 125.834 184.014 127.2 182.437C127.2 182.437 135.747 187.048 138.119 195.591Z" fill="black"/>
<path d="M138.356 195.169C136.376 186.025 127.2 181.075 127.2 181.075C125.833 182.651 124.697 184.42 123.826 186.328C127.608 188.441 134.579 195.524 136.89 197.924L138.356 195.169Z" fill="#EB5569"/>
<defs>
<linearGradient id="paint0_linear_4_6" x1="368.095" y1="49.0937" x2="368.095" y2="39.6463" gradientUnits="userSpaceOnUse">
<stop stop-color="#808080" stop-opacity="0.25"/>
<stop offset="0.54" stop-color="#808080" stop-opacity="0.12"/>
<stop offset="1" stop-color="#808080" stop-opacity="0.1"/>
</linearGradient>
<linearGradient id="paint1_linear_4_6" x1="231050" y1="338475" x2="231050" y2="23599.3" gradientUnits="userSpaceOnUse">
<stop stop-color="#808080" stop-opacity="0.25"/>
<stop offset="0.54" stop-color="#808080" stop-opacity="0.12"/>
<stop offset="1" stop-color="#808080" stop-opacity="0.1"/>
</linearGradient>
</defs>
</svg>
