<svg width="68" height="74" viewBox="0 0 68 74" fill="none" xmlns="http://www.w3.org/2000/svg">
<path d="M33.7249 0.311279C27.8873 0.311279 24.3931 1.21516 22.172 2.34218C21.0601 2.9071 20.2706 3.50027 19.7397 4.10756C19.206 4.71485 18.8696 5.60743 18.8696 5.60743C18.7824 5.83428 18.7245 6.07164 18.6973 6.31359L17.2184 25.6453C17.1989 25.7639 17.2378 25.956 17.2184 26.0859L17.046 28.0292C17.0299 28.2049 17.0299 28.3818 17.046 28.5574C17.046 37.8787 24.5515 45.5051 33.7249 45.5051C42.8983 45.5051 50.4038 37.8787 50.4038 28.5574V28.1168C50.4043 28.0876 50.4043 28.0584 50.4038 28.0292L48.7526 6.31359C48.7254 6.07164 48.6674 5.83428 48.5803 5.60743C48.5803 5.60743 48.2439 4.71485 47.7102 4.10756C47.1793 3.49745 46.3898 2.90428 45.2779 2.34218C43.0568 1.21233 39.5626 0.311279 33.7249 0.311279ZM33.7249 45.5051C15.3782 45.5051 0.367142 54.2784 0.367142 62.1873V73.7513H67.0827V62.1873C67.0827 54.6738 53.5117 46.3977 36.4186 45.5927C35.5219 45.5326 34.6235 45.5034 33.7249 45.5051ZM33.7249 5.96051C39.0066 5.96051 41.6446 6.80789 42.7593 7.37282C43.1318 7.56207 43.1763 7.63551 43.282 7.72589L44.4106 22.202C41.8531 22.3602 38.3672 22.9082 33.7249 22.9082C29.0826 22.9082 25.5995 22.3602 23.0393 22.202L24.1679 7.72589C24.2708 7.63551 24.318 7.56207 24.6905 7.37282C25.8052 6.80789 28.4433 5.96051 33.7249 5.96051ZM31.465 8.78513V12.1408H28.1653V16.7308H31.4677V20.0836H35.9822V16.7279H39.2846V12.1408H35.9822V8.78513H31.4677H31.465ZM25.3855 51.8605L32.5102 68.1021H5.92677V62.1873C5.92677 60.083 13.0153 53.9197 25.3855 51.8605ZM42.0644 51.8605C54.4346 53.9225 61.5231 60.083 61.5231 62.1873V68.1021H34.9397L42.0644 51.8605Z" fill="#EC5863"/>
</svg>
