<svg width="88" height="75" viewBox="0 0 88 75" fill="none" xmlns="http://www.w3.org/2000/svg">
<path d="M24.5815 0.707031C18.2049 0.707031 12.0895 3.2591 7.58063 7.80181C3.07172 12.3445 0.538635 18.5058 0.538635 24.9301C0.538635 27.1322 0.932064 29.3343 1.50035 31.5364H19.3358L24.8875 16.6943C26.1989 13.1709 31.3572 12.8186 33.0183 16.6943L42.0672 40.3448L44.6464 34.0909C45.2146 32.6375 46.7446 31.5364 48.6243 31.5364H87.0055C87.5738 29.3343 87.9672 27.1322 87.9672 24.9301C87.9672 18.5058 85.4341 12.3445 80.9252 7.80181C76.4163 3.2591 70.3009 0.707031 63.9243 0.707031C55.7935 0.707031 48.6243 4.80294 44.2529 11.0129C39.8815 4.80294 32.7123 0.707031 24.5815 0.707031ZM4.91006 38.1427C3.75069 38.1427 2.6388 38.6067 1.819 39.4327C0.999195 40.2586 0.538635 41.3788 0.538635 42.5469C0.538635 43.715 0.999195 44.8352 1.819 45.6612C2.6388 46.4871 3.75069 46.9511 4.91006 46.9511H15.5763L39.8815 71.1742C44.2529 75.138 44.2529 75.138 48.6243 71.1742L72.9295 46.9511H83.5958C84.7551 46.9511 85.867 46.4871 86.6868 45.6612C87.5066 44.8352 87.9672 43.715 87.9672 42.5469C87.9672 41.3788 87.5066 40.2586 86.6868 39.4327C85.867 38.6067 84.7551 38.1427 83.5958 38.1427H50.3729L46.3075 48.2724C44.5589 52.7206 39.5318 52.104 37.9143 48.4045L28.9529 24.9301L24.7563 35.1919C24.1006 36.8655 22.6143 38.1427 20.6472 38.1427H4.91006Z" fill="#EC5863"/>
</svg>
