<svg width="65" height="74" viewBox="0 0 65 74" fill="none" xmlns="http://www.w3.org/2000/svg">
<path d="M64.4813 25.7821H43.0528V73.5181H35.9099V51.4861H28.767V73.5181H21.6242V25.7821H0.195618V18.4381H64.4813V25.7821ZM32.3385 0.078125C34.2329 0.078125 36.0497 0.851865 37.3892 2.22913C38.7288 3.6064 39.4813 5.47438 39.4813 7.42213C39.4813 9.36987 38.7288 11.2379 37.3892 12.6151C36.0497 13.9924 34.2329 14.7661 32.3385 14.7661C30.4441 14.7661 28.6273 13.9924 27.2877 12.6151C25.9482 11.2379 25.1956 9.36987 25.1956 7.42213C25.1956 3.3462 28.3742 0.078125 32.3385 0.078125Z" fill="#EC5863"/>
</svg>
