<svg width="141" height="42" viewBox="0 0 141 42" fill="none" xmlns="http://www.w3.org/2000/svg">
<path d="M52.462 26.1415C50.734 26.1415 49.384 25.7215 48.412 24.8815C47.44 24.0295 46.924 22.8235 46.864 21.2635C46.852 20.9155 46.846 20.3635 46.846 19.6075C46.846 18.8515 46.852 18.2995 46.864 17.9515C46.924 16.4275 47.446 15.2515 48.43 14.4235C49.426 13.5955 50.77 13.1815 52.462 13.1815C53.602 13.1815 54.592 13.3675 55.432 13.7395C56.284 14.1115 56.932 14.5855 57.376 15.1615C57.832 15.7375 58.072 16.3315 58.096 16.9435C58.096 17.0515 58.054 17.1415 57.97 17.2135C57.898 17.2855 57.808 17.3215 57.7 17.3215H55.072C54.952 17.3215 54.856 17.3035 54.784 17.2675C54.712 17.2315 54.652 17.1655 54.604 17.0695C54.448 16.7215 54.202 16.4215 53.866 16.1695C53.53 15.9055 53.062 15.7735 52.462 15.7735C51.034 15.7735 50.284 16.5295 50.212 18.0415C50.2 18.3775 50.194 18.8995 50.194 19.6075C50.194 20.3035 50.2 20.8255 50.212 21.1735C50.284 22.7575 51.052 23.5495 52.516 23.5495C53.224 23.5495 53.788 23.3695 54.208 23.0095C54.64 22.6375 54.856 22.0735 54.856 21.3175V20.9755H53.164C53.032 20.9755 52.924 20.9335 52.84 20.8495C52.756 20.7535 52.714 20.6395 52.714 20.5075V19.1755C52.714 19.0435 52.756 18.9355 52.84 18.8515C52.924 18.7555 53.032 18.7075 53.164 18.7075H57.7C57.832 18.7075 57.94 18.7555 58.024 18.8515C58.108 18.9355 58.15 19.0435 58.15 19.1755V21.2275C58.15 22.2475 57.916 23.1295 57.448 23.8735C56.98 24.6055 56.314 25.1695 55.45 25.5655C54.598 25.9495 53.602 26.1415 52.462 26.1415ZM64.4451 26.1415C62.9571 26.1415 61.8111 25.7875 61.0071 25.0795C60.2031 24.3715 59.7651 23.3755 59.6931 22.0915C59.6811 21.9355 59.6751 21.6655 59.6751 21.2815C59.6751 20.8975 59.6811 20.6275 59.6931 20.4715C59.7651 19.1995 60.2151 18.2095 61.0431 17.5015C61.8711 16.7815 63.0051 16.4215 64.4451 16.4215C65.8971 16.4215 67.0371 16.7815 67.8651 17.5015C68.6931 18.2095 69.1431 19.1995 69.2151 20.4715C69.2271 20.6275 69.2331 20.8975 69.2331 21.2815C69.2331 21.6655 69.2271 21.9355 69.2151 22.0915C69.1431 23.3755 68.7051 24.3715 67.9011 25.0795C67.0971 25.7875 65.9451 26.1415 64.4451 26.1415ZM64.4451 23.9455C64.9731 23.9455 65.3631 23.7895 65.6151 23.4775C65.8671 23.1535 66.0111 22.6615 66.0471 22.0015C66.0591 21.8815 66.0651 21.6415 66.0651 21.2815C66.0651 20.9215 66.0591 20.6815 66.0471 20.5615C66.0111 19.9135 65.8611 19.4275 65.5971 19.1035C65.3451 18.7795 64.9611 18.6175 64.4451 18.6175C63.4491 18.6175 62.9211 19.2655 62.8611 20.5615L62.8431 21.2815L62.8611 22.0015C62.8851 22.6615 63.0231 23.1535 63.2751 23.4775C63.5391 23.7895 63.9291 23.9455 64.4451 23.9455Z" fill="black"/>
<path d="M76.385 26.1415C74.669 26.1415 73.325 25.7275 72.353 24.8995C71.393 24.0595 70.883 22.8475 70.823 21.2635C70.811 20.9395 70.805 20.4115 70.805 19.6795C70.805 18.9355 70.811 18.3955 70.823 18.0595C70.883 16.4995 71.405 15.2995 72.389 14.4595C73.373 13.6075 74.705 13.1815 76.385 13.1815C77.441 13.1815 78.389 13.3615 79.229 13.7215C80.069 14.0695 80.729 14.5735 81.209 15.2335C81.701 15.8815 81.953 16.6435 81.965 17.5195V17.5555C81.965 17.6515 81.923 17.7355 81.839 17.8075C81.767 17.8675 81.683 17.8975 81.587 17.8975H79.157C79.001 17.8975 78.881 17.8675 78.797 17.8075C78.713 17.7355 78.641 17.6095 78.581 17.4295C78.413 16.8175 78.149 16.3915 77.789 16.1515C77.429 15.8995 76.955 15.7735 76.367 15.7735C74.951 15.7735 74.219 16.5655 74.171 18.1495C74.159 18.4735 74.153 18.9715 74.153 19.6435C74.153 20.3155 74.159 20.8255 74.171 21.1735C74.219 22.7575 74.951 23.5495 76.367 23.5495C76.955 23.5495 77.435 23.4235 77.807 23.1715C78.179 22.9075 78.437 22.4815 78.581 21.8935C78.629 21.7135 78.695 21.5935 78.779 21.5335C78.863 21.4615 78.989 21.4255 79.157 21.4255H81.587C81.695 21.4255 81.785 21.4615 81.857 21.5335C81.941 21.6055 81.977 21.6955 81.965 21.8035C81.953 22.6795 81.701 23.4475 81.209 24.1075C80.729 24.7555 80.069 25.2595 79.229 25.6195C78.389 25.9675 77.441 26.1415 76.385 26.1415ZM88.0877 26.1415C86.5997 26.1415 85.4537 25.7875 84.6497 25.0795C83.8457 24.3715 83.4077 23.3755 83.3357 22.0915C83.3237 21.9355 83.3177 21.6655 83.3177 21.2815C83.3177 20.8975 83.3237 20.6275 83.3357 20.4715C83.4077 19.1995 83.8577 18.2095 84.6857 17.5015C85.5137 16.7815 86.6477 16.4215 88.0877 16.4215C89.5397 16.4215 90.6797 16.7815 91.5077 17.5015C92.3357 18.2095 92.7857 19.1995 92.8577 20.4715C92.8697 20.6275 92.8757 20.8975 92.8757 21.2815C92.8757 21.6655 92.8697 21.9355 92.8577 22.0915C92.7857 23.3755 92.3477 24.3715 91.5437 25.0795C90.7397 25.7875 89.5877 26.1415 88.0877 26.1415ZM88.0877 23.9455C88.6157 23.9455 89.0057 23.7895 89.2577 23.4775C89.5097 23.1535 89.6537 22.6615 89.6897 22.0015C89.7017 21.8815 89.7077 21.6415 89.7077 21.2815C89.7077 20.9215 89.7017 20.6815 89.6897 20.5615C89.6537 19.9135 89.5037 19.4275 89.2397 19.1035C88.9877 18.7795 88.6037 18.6175 88.0877 18.6175C87.0917 18.6175 86.5637 19.2655 86.5037 20.5615L86.4857 21.2815L86.5037 22.0015C86.5277 22.6615 86.6657 23.1535 86.9177 23.4775C87.1817 23.7895 87.5717 23.9455 88.0877 23.9455ZM95.1136 25.9615C94.9816 25.9615 94.8736 25.9195 94.7896 25.8355C94.7056 25.7515 94.6636 25.6435 94.6636 25.5115V17.0515C94.6636 16.9195 94.7056 16.8115 94.7896 16.7275C94.8736 16.6435 94.9816 16.6015 95.1136 16.6015H97.1836C97.3156 16.6015 97.4236 16.6495 97.5076 16.7455C97.6036 16.8295 97.6516 16.9315 97.6516 17.0515V17.7715C98.3116 16.9915 99.1996 16.6015 100.316 16.6015H101.108C101.24 16.6015 101.348 16.6435 101.432 16.7275C101.516 16.8115 101.558 16.9195 101.558 17.0515V18.9055C101.558 19.0255 101.516 19.1335 101.432 19.2295C101.348 19.3135 101.24 19.3555 101.108 19.3555H99.3616C98.8696 19.3555 98.4856 19.4935 98.2096 19.7695C97.9456 20.0335 97.8136 20.4115 97.8136 20.9035V25.5115C97.8136 25.6435 97.7656 25.7515 97.6696 25.8355C97.5856 25.9195 97.4776 25.9615 97.3456 25.9615H95.1136ZM107.178 26.1415C105.69 26.1415 104.544 25.7875 103.74 25.0795C102.936 24.3715 102.498 23.3755 102.426 22.0915C102.414 21.9355 102.408 21.6655 102.408 21.2815C102.408 20.8975 102.414 20.6275 102.426 20.4715C102.498 19.1995 102.948 18.2095 103.776 17.5015C104.604 16.7815 105.738 16.4215 107.178 16.4215C108.63 16.4215 109.77 16.7815 110.598 17.5015C111.426 18.2095 111.876 19.1995 111.948 20.4715C111.96 20.6275 111.966 20.8975 111.966 21.2815C111.966 21.6655 111.96 21.9355 111.948 22.0915C111.876 23.3755 111.438 24.3715 110.634 25.0795C109.83 25.7875 108.678 26.1415 107.178 26.1415ZM107.178 23.9455C107.706 23.9455 108.096 23.7895 108.348 23.4775C108.6 23.1535 108.744 22.6615 108.78 22.0015C108.792 21.8815 108.798 21.6415 108.798 21.2815C108.798 20.9215 108.792 20.6815 108.78 20.5615C108.744 19.9135 108.594 19.4275 108.33 19.1035C108.078 18.7795 107.694 18.6175 107.178 18.6175C106.182 18.6175 105.654 19.2655 105.594 20.5615L105.576 21.2815L105.594 22.0015C105.618 22.6615 105.756 23.1535 106.008 23.4775C106.272 23.7895 106.662 23.9455 107.178 23.9455ZM114.203 25.9615C114.071 25.9615 113.963 25.9195 113.879 25.8355C113.795 25.7515 113.753 25.6435 113.753 25.5115V17.0515C113.753 16.9195 113.795 16.8115 113.879 16.7275C113.963 16.6435 114.071 16.6015 114.203 16.6015H116.273C116.405 16.6015 116.513 16.6435 116.597 16.7275C116.693 16.8115 116.741 16.9195 116.741 17.0515V17.7355C117.065 17.3395 117.479 17.0215 117.983 16.7815C118.499 16.5415 119.081 16.4215 119.729 16.4215C120.785 16.4215 121.643 16.7815 122.303 17.5015C122.963 18.2095 123.293 19.2055 123.293 20.4895V25.5115C123.293 25.6315 123.251 25.7395 123.167 25.8355C123.083 25.9195 122.975 25.9615 122.843 25.9615H120.575C120.455 25.9615 120.347 25.9195 120.251 25.8355C120.167 25.7395 120.125 25.6315 120.125 25.5115V20.5975C120.125 20.0335 119.987 19.6015 119.711 19.3015C119.435 18.9895 119.039 18.8335 118.523 18.8335C118.019 18.8335 117.623 18.9895 117.335 19.3015C117.047 19.6015 116.903 20.0335 116.903 20.5975V25.5115C116.903 25.6315 116.861 25.7395 116.777 25.8355C116.693 25.9195 116.585 25.9615 116.453 25.9615H114.203ZM128.128 26.1415C127.492 26.1415 126.91 26.0215 126.382 25.7815C125.866 25.5295 125.458 25.1935 125.158 24.7735C124.87 24.3415 124.726 23.8675 124.726 23.3515C124.726 22.5235 125.062 21.8575 125.734 21.3535C126.418 20.8495 127.354 20.5015 128.542 20.3095L130.792 19.9675V19.7155C130.792 19.2595 130.696 18.9235 130.504 18.7075C130.312 18.4915 129.988 18.3835 129.532 18.3835C129.256 18.3835 129.028 18.4315 128.848 18.5275C128.668 18.6235 128.482 18.7555 128.29 18.9235C128.122 19.0675 127.996 19.1635 127.912 19.2115C127.876 19.3075 127.81 19.3555 127.714 19.3555H125.752C125.632 19.3555 125.53 19.3195 125.446 19.2475C125.374 19.1635 125.344 19.0675 125.356 18.9595C125.368 18.6355 125.524 18.2755 125.824 17.8795C126.136 17.4835 126.604 17.1415 127.228 16.8535C127.864 16.5655 128.644 16.4215 129.568 16.4215C131.044 16.4215 132.136 16.7515 132.844 17.4115C133.552 18.0595 133.906 18.9355 133.906 20.0395V25.5115C133.906 25.6315 133.864 25.7395 133.78 25.8355C133.696 25.9195 133.588 25.9615 133.456 25.9615H131.368C131.248 25.9615 131.14 25.9195 131.044 25.8355C130.96 25.7395 130.918 25.6315 130.918 25.5115V24.8815C130.654 25.2535 130.282 25.5595 129.802 25.7995C129.334 26.0275 128.776 26.1415 128.128 26.1415ZM128.974 24.0895C129.526 24.0895 129.97 23.9095 130.306 23.5495C130.654 23.1895 130.828 22.6615 130.828 21.9655V21.7135L129.298 21.9835C128.218 22.1755 127.678 22.5535 127.678 23.1175C127.678 23.4175 127.804 23.6575 128.056 23.8375C128.308 24.0055 128.614 24.0895 128.974 24.0895Z" fill="#EC5863"/>
<path d="M14.1338 7.31294C15.4356 6.68184 16.979 7.16115 17.5804 8.38295C18.0407 9.31839 17.8148 10.4171 17.1007 11.1643L17.6325 12.2787L18.376 12.9854C18.5458 13.1472 18.7855 13.2067 19.0147 13.1517C19.6325 13.0032 20.2537 12.9302 20.8685 12.9265C21.0769 12.9255 21.2754 12.8332 21.4095 12.6707L21.8463 12.143L22.101 11.0532C21.758 10.6662 21.602 10.1201 21.7304 9.57009C21.9485 8.63762 22.8982 8.06135 23.8178 8.32949C24.61 8.56009 25.107 9.37257 24.9608 10.1972C24.8681 10.7225 24.5461 11.1443 24.1229 11.3828L23.841 12.5905L23.9924 13.2213C24.0444 13.4382 24.192 13.6161 24.3916 13.7102C25.0628 14.0288 25.6907 14.4399 26.2548 14.9335C26.4443 15.0997 26.7082 15.1503 26.9496 15.0723L28.1922 14.6714L29.5467 13.7047C29.4855 12.9899 29.7955 12.2572 30.4221 11.81C31.3696 11.1342 32.6744 11.3695 33.3072 12.341C33.8784 13.2173 33.6884 14.4212 32.8708 15.0925C32.2323 15.6159 31.3993 15.6933 30.7209 15.3843L29.3582 16.3561L28.6371 17.3131C28.4436 17.5699 28.3983 17.9072 28.5103 18.2057C28.5109 18.2074 28.5114 18.2086 28.512 18.2104C28.7039 18.7248 28.8407 19.2482 28.9268 19.7725C28.9776 20.0849 29.1805 20.3483 29.4701 20.4677L30.575 20.9232L32.694 21.0866C33.0296 20.7214 33.5199 20.5077 34.0456 20.5478C34.9884 20.6207 35.6737 21.4826 35.5263 22.4446C35.3993 23.2684 34.6723 23.8893 33.8485 23.8761C33.2867 23.8671 32.8061 23.5793 32.5218 23.1518L30.3892 22.9877L29.1127 23.2927C28.8775 23.3494 28.6841 23.5239 28.6082 23.7559C28.3057 24.6724 27.8495 25.5353 27.2577 26.3026C27.1107 26.4932 27.073 26.7467 27.1545 26.9708L27.5963 28.1913L28.5096 29.3586C29.3687 29.128 30.3125 29.4069 30.8924 30.1483C31.672 31.1443 31.5016 32.5987 30.5151 33.4093C29.5292 34.2195 28.0682 34.08 27.2767 33.0988C26.7225 32.4119 26.6293 31.498 26.9511 30.7284L25.9815 29.4895L24.8643 28.7456C24.6988 28.6347 24.4868 28.6243 24.3064 28.7128C24.1061 28.8111 23.901 28.9018 23.6902 28.9847C22.5452 29.4348 21.3638 29.6094 20.2177 29.5422C20.0497 29.5327 19.8853 29.5994 19.7695 29.7244L19.2612 30.2748L18.9472 31.3495C19.2685 31.7558 19.394 32.3098 19.2357 32.852C18.9668 33.7722 17.9876 34.2946 17.0851 33.9752C16.308 33.7003 15.8565 32.8605 16.0475 32.0445C16.1692 31.5248 16.5128 31.1214 16.9483 30.907L17.2961 29.7159L17.115 28.7246C16.24 28.2953 15.4416 27.7079 14.7653 26.9834L13.3682 27.2832L12.1113 28.0922C12.2059 28.9867 11.832 29.8901 11.0717 30.3926C9.99718 31.1022 8.55908 30.7433 7.85987 29.5903C7.16089 28.4379 7.46447 26.9284 8.53895 26.2188C9.34301 25.6876 10.3501 25.7549 11.0993 26.3057L12.2846 25.5424L13.0587 24.508C13.1093 24.4403 13.1219 24.3517 13.0928 24.2735L13.0923 24.2723C12.5485 22.8142 12.4432 21.2902 12.7097 19.8486C12.7238 19.7695 12.6997 19.6887 12.6429 19.6335L11.8108 18.8172L10.1227 18.146C9.6992 18.3928 9.17465 18.4513 8.68985 18.2583C7.81403 17.9096 7.41169 16.8813 7.82919 16.0012C8.1958 15.2294 9.09822 14.8504 9.88802 15.1358C10.3992 15.3205 10.7572 15.7332 10.898 16.2185L12.5861 16.8897L13.7399 16.8696C13.82 16.8685 13.8941 16.8259 13.9385 16.7578C14.3948 16.0519 14.9572 15.4109 15.6134 14.863C15.7933 14.712 15.8923 14.4843 15.873 14.2506L15.7839 13.2002L15.2169 12.0128C14.2385 12.0516 13.3026 11.5559 12.8651 10.6674C12.2638 9.44565 12.8318 7.94344 14.1338 7.31294Z" fill="#EC5863"/>
<path d="M26.5057 19.0294C25.3216 15.866 21.8045 14.3046 18.6502 15.5421C15.4958 16.7796 13.8986 20.3473 15.0827 23.5108C16.2669 26.6743 19.7839 28.2356 22.9383 26.9981C26.0927 25.7606 27.6899 22.1929 26.5057 19.0294Z" fill="#F58A97"/>
<path d="M22.0193 25.5345C18.994 26.4885 15.7814 25.1101 14.4155 22.4187C14.465 22.7263 14.539 23.0341 14.6386 23.3397C15.6999 26.5977 19.2665 28.3853 22.605 27.3325C25.9435 26.2797 27.7895 22.7853 26.7282 19.5273C26.6286 19.2216 26.5071 18.9289 26.3656 18.6503C26.8442 21.6214 25.0446 24.5805 22.0193 25.5345Z" fill="#F07281"/>
<path d="M12.2026 34.784C11.8744 33.8629 10.8728 33.3854 9.96551 33.7175C9.05818 34.0497 8.58867 35.0657 8.91683 35.9868C9.24499 36.9079 10.2466 37.3854 11.1539 37.0533C12.0612 36.7211 12.5307 35.7052 12.2026 34.784Z" fill="#EB5569"/>
<path d="M35.0303 29.1562C34.8136 28.5478 34.152 28.2324 33.5527 28.4518C32.9534 28.6712 32.6433 29.3422 32.8601 29.9507C33.0768 30.5591 33.7384 30.8745 34.3377 30.6551C34.937 30.4357 35.2471 29.7646 35.0303 29.1562Z" fill="#EB5569"/>
<path d="M31.7247 6.74363C31.4054 5.84747 30.431 5.38294 29.5483 5.70607C28.6656 6.02921 28.2088 7.01764 28.528 7.9138C28.8473 8.80996 29.8217 9.27449 30.7044 8.95135C31.5872 8.62822 32.0439 7.63979 31.7247 6.74363Z" fill="#EB5569"/>
<path d="M21.0853 23.1181C20.7876 22.2826 19.8792 21.8495 19.0562 22.1508C18.2332 22.4521 17.8074 23.3736 18.105 24.2091C18.4027 25.0446 19.3111 25.4776 20.1341 25.1764C20.9571 24.8751 21.3829 23.9536 21.0853 23.1181Z" fill="#EB5569"/>
<path d="M25.2358 20.6382C25.0332 20.0695 24.4148 19.7747 23.8547 19.9798C23.2945 20.1849 23.0047 20.8121 23.2073 21.3808C23.4099 21.9495 24.0282 22.2442 24.5884 22.0392C25.1485 21.8341 25.4384 21.2069 25.2358 20.6382Z" fill="#EB5569"/>
<path d="M20.8948 18.1148C20.7247 17.6373 20.2054 17.3898 19.7351 17.562C19.2647 17.7341 19.0213 18.2608 19.1914 18.7384C19.3615 19.2159 19.8808 19.4634 20.3511 19.2913C20.8215 19.1191 21.0649 18.5924 20.8948 18.1148Z" fill="#EB5569"/>
</svg>
